<svg width="126" height="126" viewBox="0 0 126 126" fill="none" xmlns="http://www.w3.org/2000/svg">
<circle cx="63" cy="63" r="63" fill="#D9D9D9"/>
<path d="M63 0C97.7939 0 126 28.2061 126 63C126 97.7939 97.7939 126 63 126V0Z" fill="black"/>
<path d="M25.3438 40H42.625V83H53.6562V88H25.3438V83H36.8438V45.0312H25.3438V40Z" fill="black"/>
<path d="M88.1613 83.9375C89.2029 83.9375 90.2133 83.7708 91.1925 83.4375C92.1925 83.1042 93.0779 82.6354 93.8488 82.0312C94.6196 81.4479 95.2342 80.7604 95.6925 79.9688C96.1717 79.1562 96.4217 78.2812 96.4425 77.3438H101.911C101.89 78.8438 101.495 80.2812 100.724 81.6562C99.9738 83.0104 98.9633 84.1979 97.6925 85.2188C96.4217 86.2604 94.9633 87.0938 93.3175 87.7188C91.6717 88.3229 89.9529 88.625 88.1613 88.625C85.5988 88.625 83.3592 88.1667 81.4425 87.25C79.5258 86.3333 77.9321 85.0938 76.6613 83.5312C75.3696 81.9896 74.4008 80.2083 73.755 78.1875C73.1092 76.1458 72.7863 74 72.7863 71.75V70.4375C72.7863 68.2083 73.1092 66.0729 73.755 64.0312C74.4008 61.9896 75.3696 60.1875 76.6613 58.625C77.9321 57.0833 79.5258 55.8542 81.4425 54.9375C83.3592 54.0208 85.5988 53.5625 88.1613 53.5625C90.1613 53.5625 91.9946 53.8854 93.6613 54.5312C95.3488 55.1562 96.8071 56.0104 98.0363 57.0938C99.2446 58.1979 100.193 59.5 100.88 61C101.568 62.5 101.911 64.1042 101.911 65.8125H96.4425C96.4217 64.7917 96.1925 63.8333 95.755 62.9375C95.3383 62.0208 94.7654 61.2188 94.0363 60.5312C93.3071 59.8438 92.4321 59.3021 91.4113 58.9062C90.4113 58.5104 89.3279 58.3125 88.1613 58.3125C86.3696 58.3125 84.8592 58.6771 83.63 59.4062C82.4217 60.1146 81.4425 61.0417 80.6925 62.1875C79.9425 63.3542 79.4008 64.6562 79.0675 66.0938C78.755 67.5312 78.5988 68.9792 78.5988 70.4375V71.75C78.5988 73.2292 78.755 74.6979 79.0675 76.1562C79.4008 77.5938 79.9425 78.8854 80.6925 80.0312C81.4217 81.1979 82.3904 82.1458 83.5988 82.875C84.8279 83.5833 86.3488 83.9375 88.1613 83.9375Z" fill="white"/>
</svg>
